<?xml version="1.0" encoding="iso-8859-1"?>
<!-- Uploaded to: SVG Repo, www.svgrepo.com, Generator: SVG Repo Mixer Tools -->
<svg version="1.1" id="Layer_1" xmlns="http://www.w3.org/2000/svg" xmlns:xlink="http://www.w3.org/1999/xlink" 
	 viewBox="0 0 466.6 466.6" xml:space="preserve">
<polygon style="fill:#1A9AD3;" points="433.928,334.392 280.984,287.152 280.984,274.6 184.984,274.6 184.984,287.16 
	32.032,334.392 39.768,466.6 39.768,466.6 39.768,466.6 424.984,466.6 427.096,466.6 427.096,466.6 "/>
<polygon style="fill:#1982BC;" points="433.928,334.392 280.984,287.152 280.984,274.6 184.984,274.6 184.984,287.16 
	32.032,334.392 105.864,466.6 105.864,466.6 41.68,466.6 424.984,466.6 427.096,466.6 427.096,466.6 "/>
<polyline style="fill:#11558C;" points="240.984,466.6 41.68,466.6 424.984,466.6 427.096,466.6 427.096,466.6 434.568,334.392 
	280.984,287.152 280.984,274.6 184.984,274.6 184.984,287.16 32.032,334.392 "/>
<g>
	<polygon style="fill:#042635;" points="348.488,250.6 117.48,250.6 133.976,138.6 331.976,138.6 	"/>
	<path style="fill:#042635;" d="M337.648,133.456c0,35.344-51.264,64-104.672,64c-53.376,0-104.656-28.656-104.656-64
		s51.28-64,104.656-64C286.384,69.456,337.648,98.112,337.648,133.456z"/>
</g>
<g>
	<rect x="184.984" y="186.6" style="fill:#F9BDA0;" width="96" height="112"/>
	<polygon style="fill:#F9BDA0;" points="282.48,303.408 232.984,447.736 183.48,303.408 232.984,194.6 	"/>
</g>
<polygon style="fill:#EAA78C;" points="280.984,280.136 280.984,186.6 185.96,186.6 234.192,401.208 "/>
<path style="fill:#FCCCB9;" d="M307.944,102.112c0,72.24-36.624,137.616-74.944,137.616s-74.96-65.376-74.96-137.616
	S194.68,17.824,233,17.824S307.944,29.872,307.944,102.112z"/>
<path style="fill:#F9BDA0;" d="M233,17.824c38.32,0,74.944,12.048,74.944,84.288S271.32,239.728,233,239.728"/>
<g>
	<path style="fill:#042635;" d="M243.416,13.072c0,0-69.656,53.328,89.92,117.568c0,0,3.064-70.688-23-101.504
		c-26.08-30.8-66.44-27-66.44-27L243.416,13.072z"/>
	<path style="fill:#042635;" d="M268.368,3.96c0,0,64.168,71.112-135.672,132.048c0,0-11.784-75.976,18.984-108.528
		C182.44-5.072,237.6,0.336,237.6,0.336L268.368,3.96z"/>
</g>
<g>
	<rect x="144.984" y="58.6" style="fill:#042635;" width="128" height="72"/>
	<polygon style="fill:#042635;" points="320.984,130.6 282.032,130.6 262.528,58.6 320.984,58.6 	"/>
</g>
<g>
	
		<rect x="177.013" y="298.998" transform="matrix(-0.9484 0.3172 -0.3172 -0.9484 470.2894 683.4492)" style="fill:#1982BC;" width="5" height="162.014"/>
	
		<rect x="283.968" y="298.93" transform="matrix(0.9487 0.3162 -0.3162 0.9487 134.8326 -71.0898)" style="fill:#1982BC;" width="5.016" height="162.009"/>
</g>
<g>
	<polygon style="fill:#11558C;" points="183,301.464 152.664,337.464 122.968,307.768 169.664,273.464 	"/>
	<polygon style="fill:#11558C;" points="282.968,301.464 313.304,337.464 343,307.768 296.304,273.464 	"/>
</g>
</svg>